<svg xmlns="http://www.w3.org/2000/svg" viewBox="0 0 24 24">
  <path d="M15.5 14h-.79l-.28-.27C15.41 12.59 16 11.11 16 9.5 16 5.91 13.09 3 9.5 3S3 5.91 3 9.5 5.91 16 9.5 16c1.61 0 3.09-.59 4.23-1.57l.27.28v.79l5 4.99L20.49 19l-4.99-5zm-6 0C7.01 14 5 11.99 5 9.5S7.01 5 9.5 5 14 7.01 14 9.5 11.99 14 9.5 14z" fill="#4285F4"/>
  <circle cx="9.5" cy="9.5" r="2.5" fill="#EA4335"/>
  <path d="M11.5 9.5c0 1.1-.9 2-2 2" fill="none" stroke="#FBBC05" stroke-width="1.2"/>
  <path d="M9.5 7.5c1.1 0 2 .9 2 2" fill="none" stroke="#34A853" stroke-width="1.2"/>
</svg>